<?xml version="1.0" encoding="UTF-8"?>
<svg version="1.1" xmlns="http://www.w3.org/2000/svg" width="1024" height="1024">
<path d="M0 0 C337.92 0 675.84 0 1024 0 C1024 337.92 1024 675.84 1024 1024 C686.08 1024 348.16 1024 0 1024 C0 686.08 0 348.16 0 0 Z " fill="#FEFEFE" transform="translate(0,0)"/>
<path d="M0 0 C0.15291603 6.79086183 -0.41727466 13.21960927 -1.375 19.9375 C-2.42248075 27.44622682 -3.34800003 34.96069641 -4.17175293 42.49700928 C-4.87535833 48.92196833 -5.61581608 55.34218106 -6.3671875 61.76171875 C-8.86071188 83.11865054 -11.30424238 104.47312428 -13.42907715 125.87017822 C-14.38769448 135.49250256 -15.45814837 145.07380265 -16.94732666 154.63114929 C-17.83537105 160.47279967 -18.43510636 166.30466969 -18.9296875 172.19140625 C-19.84792937 182.67451923 -20.97016891 193.1261915 -22.17724609 203.57958984 C-22.50233338 206.39520971 -22.82373307 209.21123227 -23.14453125 212.02734375 C-24.07635647 220.17831262 -25.02744799 228.32579882 -26.05859375 236.46484375 C-27.12312477 244.88052313 -28.04018333 253.30986591 -28.94335938 261.74414062 C-29.06646484 262.87400391 -29.18957031 264.00386719 -29.31640625 265.16796875 C-29.42412354 266.17110107 -29.53184082 267.1742334 -29.64282227 268.20776367 C-29.97955474 270.8401692 -30.44451581 273.40586216 -31 276 C-33.34460757 274.01218054 -35.67661782 272.01247751 -38 270 C-38.70253906 269.39285156 -39.40507813 268.78570312 -40.12890625 268.16015625 C-46.3872987 262.64302856 -52.27126305 256.80012872 -58.11499023 250.84814453 C-61.98863556 246.92371475 -65.97470138 243.22437683 -70.15185547 239.62548828 C-73.65063252 236.54822836 -76.83960873 233.17630431 -80.09375 229.84375 C-82.24899671 227.68277125 -84.50007235 225.67513511 -86.8125 223.68359375 C-91.24841636 219.84256021 -95.37740612 215.7347177 -99.5 211.5625 C-100.59054687 210.46518555 -100.59054687 210.46518555 -101.703125 209.34570312 C-103.47109499 207.56610176 -105.23666378 205.78419082 -107 204 C-109.97826201 205.32806215 -111.9445046 206.73511233 -114.14453125 209.1328125 C-114.73105469 209.76574219 -115.31757812 210.39867187 -115.921875 211.05078125 C-116.54578125 211.73527344 -117.1696875 212.41976562 -117.8125 213.125 C-119.16260928 214.58607717 -120.51287399 216.04701073 -121.86328125 217.5078125 C-122.89509521 218.62978027 -122.89509521 218.62978027 -123.94775391 219.77441406 C-127.10986251 223.20360536 -130.30532608 226.60117739 -133.5 230 C-137.33694659 234.08917816 -141.17058807 238.18136451 -144.99609375 242.28125 C-150.68420548 248.37205991 -156.36754258 254.43879185 -162.3125 260.28125 C-164.73674411 262.75038752 -166.9642453 265.37657634 -169.21875 268 C-171.0742521 270.08337078 -173.01223101 272.04281207 -175 274 C-177.49709965 276.45912095 -179.86058142 278.95093786 -182.125 281.625 C-185.5528078 285.62147638 -189.260336 289.29932129 -193 293 C-198.41495534 298.34464652 -198.41495534 298.34464652 -203.5 304 C-207.31089669 308.5108573 -211.54732029 312.59892706 -215.76367188 316.7265625 C-218.78250459 319.7012503 -221.67095625 322.72554898 -224.4375 325.9375 C-228.71244008 330.88994174 -233.37142343 335.42177931 -238.0390625 340 C-241.31700634 343.23997537 -244.49135561 346.50697069 -247.5 350 C-251.75032812 354.93462131 -256.39258338 359.44253389 -261.0390625 364 C-264.97003836 367.88544332 -268.67858086 371.87527415 -272.28515625 376.0625 C-275.0488548 379.18503868 -278.02151819 382.08420571 -281 385 C-285.23406016 389.18538009 -289.31832043 393.39679523 -293.1640625 397.9453125 C-296.1608261 401.29913729 -299.39487827 404.41454888 -302.59375 407.57421875 C-305.97113544 410.92614651 -309.14264051 414.38232372 -312.2265625 418.0078125 C-315.19815709 421.34594739 -318.42344474 424.43037033 -321.6015625 427.5703125 C-323.6198473 429.61489417 -325.51499518 431.68836018 -327.375 433.875 C-330.89798557 437.99906368 -334.73715773 441.76490564 -338.59277344 445.57324219 C-341.97048179 448.92550641 -345.14233742 452.38196741 -348.2265625 456.0078125 C-351.19815709 459.34594739 -354.42344474 462.43037033 -357.6015625 465.5703125 C-359.6198473 467.61489417 -361.51499518 469.68836018 -363.375 471.875 C-366.41430789 475.43286279 -369.67364672 478.71441085 -373 482 C-376.24297478 485.20342631 -379.42936187 488.39107267 -382.375 491.875 C-386.27394573 496.46538438 -390.59792419 500.62294256 -394.87524414 504.85571289 C-398.52735295 508.48435748 -402.00945899 512.18121306 -405.3359375 516.11328125 C-408.69767296 519.92482638 -412.37098859 523.44505005 -416 527 C-420.903976 522.88590566 -425.52535807 518.61472792 -430.03686523 514.07666016 C-430.70113022 513.4125412 -431.3653952 512.74842224 -432.04978943 512.06417847 C-434.22177269 509.89150441 -436.39020279 507.71532128 -438.55859375 505.5390625 C-440.07294682 504.02284228 -441.58752237 502.50684424 -443.10231018 500.99105835 C-447.07138372 497.01818297 -451.03744381 493.04231269 -455.00286865 489.0657959 C-459.05672562 485.00167446 -463.11344637 480.94041378 -467.16992188 476.87890625 C-475.11607526 468.92205673 -483.05904577 460.96203806 -491 453 C-494.46743471 454.64388508 -496.92309063 456.57215868 -499.75 459.1875 C-502.74271743 461.93191336 -505.73687703 464.66132606 -508.8125 467.3125 C-511.811166 469.91819566 -514.72869599 472.59918869 -517.63305664 475.30859375 C-523.12324283 480.42925585 -528.72732898 485.2861992 -534.5859375 489.98828125 C-536.68916189 491.74096825 -538.60058933 493.53307474 -540.5 495.5 C-543.17041844 498.26489079 -545.99595992 500.66368565 -549 503.0625 C-554.46070912 507.45366333 -559.55325977 512.17118414 -564.65112305 516.97558594 C-568.411329 520.51925573 -572.20649455 523.99760546 -576.12109375 527.37109375 C-578.39777145 529.34484552 -580.63656722 531.3579887 -582.875 533.375 C-583.71933594 534.13554688 -584.56367187 534.89609375 -585.43359375 535.6796875 C-587.11697748 537.20165087 -588.79679835 538.72756626 -590.47265625 540.2578125 C-594.78277325 544.17858454 -599.15036752 547.96802163 -603.6875 551.625 C-606.78591453 554.12973231 -609.73296947 556.6339111 -612.5 559.5 C-615.18967565 562.28505422 -618.03968272 564.70498616 -621.0625 567.125 C-626.89288339 571.81500537 -632.32214786 576.87516404 -637.77734375 581.9921875 C-640.81794331 584.8422557 -643.92348424 587.60488811 -647.078125 590.328125 C-649.41105074 592.35758073 -651.70511245 594.427647 -654 596.5 C-656.93678465 599.15113994 -659.88602542 601.78290171 -662.875 604.375 C-665.7222627 606.84988428 -668.50639692 609.38448351 -671.27319336 611.94897461 C-675.51840916 615.88177485 -679.78850618 619.69734422 -684.3125 623.3125 C-690.34601017 628.16554079 -695.92409575 633.46266962 -701.5546875 638.76953125 C-704.68118062 641.7135475 -707.86882842 644.5710669 -711.125 647.37109375 C-713.38751181 649.33665089 -715.59690683 651.35673309 -717.8125 653.375 C-721.21083552 656.44746773 -724.67590523 659.38442622 -728.25 662.25 C-732.67933543 665.82850264 -736.85694216 669.60005558 -741 673.5 C-748.00717483 680.0932974 -755.26686081 686.26250963 -763 692 C-761.65048769 688.10293895 -759.94239929 685.48239317 -757.25 682.375 C-753.05440624 677.37385223 -749.15735094 672.21224978 -745.3125 666.9375 C-738.39713964 657.47333807 -731.2420722 648.21541246 -724 639 C-722.98544961 637.70460521 -721.97111738 636.40903952 -720.95703125 635.11328125 C-717.05966292 630.13801597 -713.14891503 625.17454976 -709.1875 620.25 C-705.40586079 615.54049467 -701.70296851 610.77137555 -698 606 C-693.69818385 600.456993 -689.37577449 594.93500489 -684.9765625 589.46875 C-682.52802963 586.41050341 -680.10644312 583.33167302 -677.6875 580.25 C-677.22118164 579.65598389 -676.75486328 579.06196777 -676.27441406 578.44995117 C-674.39132369 576.05020645 -672.50905769 573.64981849 -670.62792969 571.24853516 C-662.76055048 561.2058568 -654.81903097 551.22434257 -646.81640625 541.2890625 C-643.2557055 536.86147083 -639.75995746 532.39118291 -636.3125 527.875 C-632.46663163 522.8397807 -628.51062181 517.904799 -624.5 513 C-619.71127915 507.14177725 -615.04191952 501.21188497 -610.44921875 495.19921875 C-603.9442179 486.68381925 -597.27160025 478.30443524 -590.5 470 C-583.42753565 461.32581219 -576.51080389 452.53763766 -569.66015625 443.6875 C-563.40651637 435.6137644 -557.09189795 427.60513282 -550.62475586 419.70117188 C-546.8133675 415.0322065 -543.10739629 410.29362775 -539.44946289 405.50390625 C-534.73729135 399.3348268 -529.87477123 393.29352954 -524.96484375 387.28125 C-519.79837486 380.95094829 -514.65038532 374.61687472 -509.6875 368.125 C-508.89472656 367.08988281 -508.10195313 366.05476563 -507.28515625 364.98828125 C-505.77058838 363.00769249 -504.25754838 361.02593435 -502.74609375 359.04296875 C-501.69615234 357.69138672 -501.69615234 357.69138672 -500.625 356.3125 C-500.01914062 355.52488281 -499.41328125 354.73726562 -498.7890625 353.92578125 C-496.96542321 351.96278088 -495.45899521 351.01284604 -493 350 C-492.38125 350.63615234 -492.38125 350.63615234 -491.75 351.28515625 C-491.1725 351.87167969 -490.595 352.45820312 -490 353.0625 C-489.1646875 353.91521484 -489.1646875 353.91521484 -488.3125 354.78515625 C-486.35426902 356.66069166 -484.35760156 358.42890291 -482.3034668 360.1965332 C-478.32033 363.6738458 -474.55357833 367.31671143 -470.83203125 371.0703125 C-470.18932785 371.71443085 -469.54662445 372.35854919 -468.88444519 373.02218628 C-466.85807085 375.05409005 -464.83521951 377.08945857 -462.8125 379.125 C-461.44619838 380.49632777 -460.0796637 381.86742337 -458.71289062 383.23828125 C-456.20534431 385.75394013 -453.69913947 388.27091824 -451.19458008 390.78955078 C-450.65116974 391.33565002 -450.1077594 391.88174927 -449.54788208 392.44439697 C-448.10345004 393.89603395 -446.65949468 395.3481452 -445.21557617 396.80029297 C-443.04353685 398.95677499 -440.80111747 400.98258194 -438.5 403 C-435.41345534 405.73432635 -432.45269331 408.53153358 -429.6015625 411.5078125 C-429.02470703 412.1059375 -428.44785156 412.7040625 -427.85351562 413.3203125 C-426.71363844 414.51042157 -425.58439227 415.71081756 -424.46679688 416.921875 C-422.73878701 418.77784736 -422.73878701 418.77784736 -420 421 C-417.00798736 420.6796682 -416.15719997 420.16311442 -414.02734375 417.953125 C-412.99287109 416.61507812 -412.99287109 416.61507812 -411.9375 415.25 C-411.15246094 414.25484375 -410.36742187 413.2596875 -409.55859375 412.234375 C-409.14335449 411.70521484 -408.72811523 411.17605469 -408.30029297 410.63085938 C-406.09673313 407.8671005 -403.7953339 405.18757197 -401.5 402.5 C-398.12614492 398.53185654 -394.78820749 394.53979778 -391.5 390.5 C-387.75212202 385.8954642 -383.93016556 381.35980809 -380.0859375 376.8359375 C-377.18755177 373.4194046 -374.328449 369.97495162 -371.5 366.5 C-367.75082511 361.89387085 -363.92814812 357.356104 -360.08154297 352.83154297 C-357.22153062 349.4614901 -354.40744267 346.05973692 -351.625 342.625 C-347.50063491 337.55792289 -343.23546381 332.62433709 -338.94677734 327.69677734 C-331.32540715 318.93676065 -323.83903772 310.07192286 -316.50390625 301.0703125 C-308.69208052 291.49138111 -300.84027163 281.94770048 -292.83251953 272.53173828 C-290.01761419 269.21733032 -287.24536045 265.87217726 -284.5 262.5 C-279.87578939 256.8225884 -275.1482319 251.23699995 -270.40722656 245.65722656 C-268.1010458 242.94134262 -265.80071332 240.2205156 -263.5 237.5 C-260.72953924 234.22402395 -257.95774155 230.94922865 -255.1796875 227.6796875 C-250.1632698 221.77146221 -245.20546884 215.82386172 -240.3125 209.8125 C-237.73853455 206.68200149 -235.12423097 203.58834366 -232.5 200.5 C-227.59454156 194.72457456 -222.77971335 188.88007901 -218 183 C-212.76249771 176.55674179 -207.46997246 170.16808786 -202.09082031 163.84301758 C-198.399263 159.4946524 -194.79787884 155.07821016 -191.21875 150.63671875 C-188.17361994 147.01794623 -184.88695656 143.64377108 -181.5546875 140.2890625 C-179.75191458 138.10511425 -179.75191458 138.10511425 -180.03515625 135.41796875 C-181.14962962 132.62501726 -182.21507782 131.53879381 -184.5625 129.6875 C-187.53511823 127.24476024 -190.31088451 124.75301526 -193 122 C-195.51955389 119.44130741 -198.08118782 117.01829389 -200.8125 114.6875 C-204.20195583 111.77749568 -207.364518 108.67840441 -210.5 105.5 C-214.18993853 101.75968688 -217.97503694 98.21760653 -221.97265625 94.80859375 C-224.41428634 92.63041508 -226.70048032 90.32751992 -229 88 C-233.79669867 83.1518819 -238.79123576 78.64646651 -244.05078125 74.30859375 C-244.69402344 73.77363281 -245.33726562 73.23867187 -246 72.6875 C-246.86625 71.98173828 -246.86625 71.98173828 -247.75 71.26171875 C-249 70 -249 70 -249 68 C-236.28933741 64.23526787 -223.57033802 60.56279904 -210.73828125 57.234375 C-195.91468929 53.38858806 -181.18806409 49.20456804 -166.47290039 44.96606445 C-158.07056754 42.55873535 -149.63627223 40.31724404 -141.16918945 38.15063477 C-134.14837747 36.33883222 -127.21397518 34.30508642 -120.28198242 32.18139648 C-113.87188213 30.2288247 -107.42065759 28.49656853 -100.93261719 26.82397461 C-95.75584146 25.4824649 -90.62249097 24.03519357 -85.5 22.5 C-79.54837674 20.71854755 -73.57479597 19.06457656 -67.5625 17.5 C-51.02380312 13.19431329 -34.6047361 8.47454792 -18.17578125 3.76953125 C-17.09514404 3.46080078 -16.01450684 3.15207031 -14.90112305 2.83398438 C-13.17148462 2.33676609 -11.44322649 1.83464178 -9.71801758 1.32226562 C-6.35751806 0.32708303 -3.52001357 -0.21333416 0 0 Z " fill="#010101" transform="translate(896,171)"/>
</svg>
